<?xml version="1.0" encoding="UTF-8"?>
<svg width="24" height="24" viewBox="0 0 24 24" fill="none" xmlns="http://www.w3.org/2000/svg">
  <path d="M12 2C13.1 2 14 2.9 14 4C14 5.1 13.1 6 12 6C10.9 6 10 5.1 10 4C10 2.9 10.9 2 12 2Z" fill="#FF8A65"/>
  <path d="M21 8C21 9.1 20.1 10 19 10C17.9 10 17 9.1 17 8C17 6.9 17.9 6 19 6C20.1 6 21 6.9 21 8Z" fill="#FF8A65"/>
  <path d="M7 8C7 9.1 6.1 10 5 10C3.9 10 3 9.1 3 8C3 6.9 3.9 6 5 6C6.1 6 7 6.9 7 8Z" fill="#FF8A65"/>
  <path d="M12 22C13.1 22 14 21.1 14 20C14 18.9 13.1 18 12 18C10.9 18 10 18.9 10 20C10 21.1 10.9 22 12 22Z" fill="#FF8A65"/>
  <path d="M19 6L5 6M12 4V18M5 10L12 18M19 10L12 18" stroke="#FF8A65" stroke-width="2" stroke-linecap="round"/>
</svg> 